<svg preserveAspectRatio="none" width="40" height="40" viewBox="0 0 40 40" fill="none" xmlns="http://www.w3.org/2000/svg">
<g clip-path="url(#clip0_4218_738)">
<rect width="40" height="40" rx="6" fill="#F7F7F8"/>
<g filter="url(#filter0_d_4218_738)">
<g filter="url(#filter1_d_4218_738)">
<path d="M15.4263 8.76547L11.539 10.2229V22.3419V25.629V30.5522L15.1974 33.7651L15.4263 22.9088V19.8236V8.76547Z" fill="#0782F4"/>
<path d="M15.4263 8.76547L11.539 10.2229V22.3419V25.629V30.5522L15.1974 33.7651L15.4263 22.9088V19.8236V8.76547Z" fill="url(#paint0_linear_4218_738)" fill-opacity="0.2"/>
<path d="M19.6669 4.95739L23.5542 3.5V14.5581L19.6669 17.0764V4.95739Z" fill="#0782F4"/>
<path d="M19.6669 4.95739L23.5542 3.5V14.5581L19.6669 17.0764V4.95739Z" fill="url(#paint1_linear_4218_738)" fill-opacity="0.2"/>
<path d="M23.7609 17.0764L19.8736 19.7967V24.898L23.7609 27.8128V17.0764Z" fill="#0782F4"/>
<path d="M23.7609 17.0764L19.8736 19.7967V24.898L23.7609 27.8128V17.0764Z" fill="url(#paint2_linear_4218_738)" fill-opacity="0.2"/>
<path d="M31.6822 8.55731L33.2135 8.34911L32.5871 9.80155L34.7449 9.39006L34.0381 10.6393L36.8652 6.89172L31.6822 8.55731Z" fill="#0782F4"/>
<path d="M31.6822 8.55731L33.2135 8.34911L32.5871 9.80155L34.7449 9.39006L34.0381 10.6393L36.8652 6.89172L31.6822 8.55731Z" fill="url(#paint3_linear_4218_738)" fill-opacity="0.2"/>
<path d="M33.2135 8.34911L31.6822 8.55731L36.8652 6.89172L34.0381 10.6393L34.7449 9.39006M33.2135 8.34911C26.2672 12.8302 22.3726 15.3425 15.4263 19.8236M33.2135 8.34911L15.4263 19.8236M33.2135 8.34911L32.5871 9.80155L34.7449 9.39006M34.7449 9.39006L15.4263 22.9088M34.7449 9.39006L23.7609 17.0764M15.1974 33.7651L15.4263 22.9088M15.1974 33.7651L12.128 35.5L4 27.2762L11.539 22.3419M15.1974 33.7651L11.539 30.5522M11.539 25.629V22.3419M11.539 25.629L8.71186 27.6074L11.539 30.5522M11.539 25.629V30.5522M11.539 22.3419V10.2229L15.4263 8.76547V19.8236M15.4263 19.8236V22.9088M15.4263 22.9088L19.8736 19.7967M19.8736 19.7967V24.898L23.7609 27.8128V17.0764M19.8736 19.7967L23.7609 17.0764M19.6669 4.95739L23.5542 3.5V14.5581L19.6669 17.0764V4.95739Z" stroke="#0782F4"/>
</g>
</g>
</g>
<rect width="40" height="40" rx="6" stroke="#0083FF"/>
<defs>
<filter id="filter0_d_4218_738" x="-1.78549" y="2.77856" width="45.0004" height="43.3449" filterUnits="userSpaceOnUse" color-interpolation-filters="sRGB">
<feFlood flood-opacity="0" result="BackgroundImageFix"/>
<feColorMatrix in="SourceAlpha" type="matrix" values="0 0 0 0 0 0 0 0 0 0 0 0 0 0 0 0 0 0 127 0" result="hardAlpha"/>
<feOffset dy="5"/>
<feGaussianBlur stdDeviation="2.5"/>
<feComposite in2="hardAlpha" operator="out"/>
<feColorMatrix type="matrix" values="0 0 0 0 0 0 0 0 0 0 0 0 0 0 0 0 0 0 0.75 0"/>
<feBlend mode="normal" in2="BackgroundImageFix" result="effect1_dropShadow_4218_738"/>
<feBlend mode="normal" in="SourceGraphic" in2="effect1_dropShadow_4218_738" result="shape"/>
</filter>
<filter id="filter1_d_4218_738" x="2.21451" y="2.77856" width="37.0004" height="36.3449" filterUnits="userSpaceOnUse" color-interpolation-filters="sRGB">
<feFlood flood-opacity="0" result="BackgroundImageFix"/>
<feColorMatrix in="SourceAlpha" type="matrix" values="0 0 0 0 0 0 0 0 0 0 0 0 0 0 0 0 0 0 127 0" result="hardAlpha"/>
<feOffset dy="2"/>
<feGaussianBlur stdDeviation="0.5"/>
<feComposite in2="hardAlpha" operator="out"/>
<feColorMatrix type="matrix" values="0 0 0 0 0 0 0 0 0 0 0 0 0 0 0 0 0 0 0.25 0"/>
<feBlend mode="normal" in2="BackgroundImageFix" result="effect1_dropShadow_4218_738"/>
<feBlend mode="normal" in="SourceGraphic" in2="effect1_dropShadow_4218_738" result="shape"/>
</filter>
<linearGradient id="paint0_linear_4218_738" x1="20.4326" y1="3.5" x2="20.4326" y2="35.5" gradientUnits="userSpaceOnUse">
<stop offset="0.597236" stop-color="white"/>
<stop offset="0.801268" stop-color="#02284A"/>
</linearGradient>
<linearGradient id="paint1_linear_4218_738" x1="20.4326" y1="3.5" x2="20.4326" y2="35.5" gradientUnits="userSpaceOnUse">
<stop offset="0.597236" stop-color="white"/>
<stop offset="0.801268" stop-color="#02284A"/>
</linearGradient>
<linearGradient id="paint2_linear_4218_738" x1="20.4326" y1="3.5" x2="20.4326" y2="35.5" gradientUnits="userSpaceOnUse">
<stop offset="0.597236" stop-color="white"/>
<stop offset="0.801268" stop-color="#02284A"/>
</linearGradient>
<linearGradient id="paint3_linear_4218_738" x1="20.4326" y1="3.5" x2="20.4326" y2="35.5" gradientUnits="userSpaceOnUse">
<stop offset="0.597236" stop-color="white"/>
<stop offset="0.801268" stop-color="#02284A"/>
</linearGradient>
<clipPath id="clip0_4218_738">
<rect width="40" height="40" rx="6" fill="white"/>
</clipPath>
</defs>
</svg>
